<svg width="193" height="64" viewBox="0 0 193 64" fill="none" xmlns="http://www.w3.org/2000/svg">
<g clip-path="url(#clip0_333_5300)">
<path d="M32.8917 11.0092C32.729 11.0085 32.5733 10.943 32.4585 10.8269C32.3437 10.7109 32.2792 10.5538 32.2792 10.39V0.616601C32.2792 0.453068 32.3438 0.296233 32.4586 0.180598C32.5735 0.0649631 32.7293 0 32.8917 0C33.0542 0 33.21 0.0649631 33.3248 0.180598C33.4397 0.296233 33.5042 0.453068 33.5042 0.616601V10.39C33.5042 10.5538 33.4398 10.7109 33.325 10.8269C33.2102 10.943 33.0544 11.0085 32.8917 11.0092Z" fill="#F9DC39"/>
<path d="M20.2151 23.7681H10.5067C10.3443 23.7681 10.1885 23.7032 10.0736 23.5875C9.95876 23.4719 9.89423 23.315 9.89423 23.1515C9.89423 22.988 9.95876 22.8311 10.0736 22.7155C10.1885 22.5999 10.3443 22.5349 10.5067 22.5349H20.2151C20.3775 22.5349 20.5333 22.5999 20.6482 22.7155C20.7631 22.8311 20.8276 22.988 20.8276 23.1515C20.8276 23.315 20.7631 23.4719 20.6482 23.5875C20.5333 23.7032 20.3775 23.7681 20.2151 23.7681Z" fill="#F9DC39"/>
<path d="M55.2767 23.7681H45.5684C45.4059 23.7681 45.2501 23.7032 45.1353 23.5875C45.0204 23.4719 44.9559 23.315 44.9559 23.1515C44.9559 22.988 45.0204 22.8311 45.1353 22.7155C45.2501 22.5999 45.4059 22.5349 45.5684 22.5349H55.2767C55.4392 22.5349 55.595 22.5999 55.7098 22.7155C55.8247 22.8311 55.8892 22.988 55.8892 23.1515C55.8892 23.315 55.8247 23.4719 55.7098 23.5875C55.595 23.7032 55.4392 23.7681 55.2767 23.7681Z" fill="#F9DC39"/>
<path d="M23.9294 14.7563C23.8486 14.7563 23.7686 14.7402 23.6941 14.709C23.6195 14.6778 23.5518 14.6321 23.4948 14.5744L16.6291 7.65481C16.5223 7.53713 16.4647 7.38253 16.4683 7.22319C16.4719 7.06385 16.5364 6.91203 16.6483 6.79933C16.7603 6.68663 16.9111 6.62173 17.0694 6.61812C17.2276 6.61451 17.3812 6.67249 17.4981 6.77997L24.3612 13.7022C24.4185 13.7593 24.4639 13.8273 24.4949 13.9021C24.5259 13.977 24.5418 14.0572 24.5418 14.1383C24.5418 14.2194 24.5259 14.2997 24.4949 14.3746C24.4639 14.4494 24.4185 14.5174 24.3612 14.5744C24.305 14.6322 24.2377 14.6781 24.1636 14.7093C24.0894 14.7406 24.0098 14.7565 23.9294 14.7563Z" fill="#F9DC39"/>
<path d="M41.8541 14.7563C41.7737 14.7565 41.6941 14.7406 41.6199 14.7093C41.5457 14.6781 41.4785 14.6322 41.4222 14.5744C41.365 14.5174 41.3196 14.4494 41.2886 14.3746C41.2576 14.2997 41.2416 14.2194 41.2416 14.1383C41.2416 14.0572 41.2576 13.977 41.2886 13.9021C41.3196 13.8273 41.365 13.7593 41.4222 13.7022L48.2853 6.79051C48.4022 6.68303 48.5558 6.62505 48.7141 6.62866C48.8724 6.63227 49.0232 6.69717 49.1351 6.80987C49.2471 6.92257 49.3116 7.07439 49.3151 7.23373C49.3187 7.39307 49.2611 7.54767 49.1544 7.66535L42.2886 14.5639C42.2325 14.6235 42.1652 14.6711 42.0906 14.7042C42.016 14.7372 41.9356 14.7549 41.8541 14.7563Z" fill="#F9DC39"/>
<path d="M42.0216 23.7051C42.3265 18.6281 38.4854 14.2636 33.4422 13.9566C28.399 13.6496 24.0634 17.5165 23.7585 22.5935C23.4536 27.6705 27.2947 32.035 32.338 32.342C37.3812 32.649 41.7167 28.7821 42.0216 23.7051Z" fill="#F9DC39"/>
<path d="M37.8441 12.0211C37.7615 12.0209 37.6798 12.0048 37.6033 11.9736C37.4541 11.9092 37.3362 11.788 37.2754 11.6365C37.2146 11.4849 37.2158 11.3154 37.2787 11.1647L41.0715 2.16601C41.135 2.0154 41.2553 1.89637 41.406 1.83509C41.5567 1.77382 41.7254 1.77532 41.875 1.83926C42.0247 1.90321 42.1429 2.02436 42.2038 2.17607C42.2646 2.32778 42.2631 2.49762 42.1996 2.64822L38.4068 11.6469C38.36 11.7581 38.2816 11.8529 38.1815 11.9194C38.0814 11.986 37.964 12.0213 37.8441 12.0211Z" fill="#F9DC39"/>
<path d="M21.2228 18.7826C21.1412 18.7821 21.0603 18.766 20.9846 18.7352L12.0406 14.917C11.9665 14.8853 11.8994 14.8393 11.843 14.7815C11.7866 14.7237 11.742 14.6553 11.7119 14.5802C11.6817 14.5051 11.6666 14.4247 11.6673 14.3437C11.668 14.2627 11.6846 14.1826 11.716 14.108C11.7475 14.0335 11.7932 13.9659 11.8506 13.9091C11.908 13.8523 11.976 13.8075 12.0506 13.7771C12.1252 13.7468 12.205 13.7315 12.2855 13.7322C12.366 13.733 12.4455 13.7496 12.5196 13.7813L21.4637 17.5995C21.5931 17.6555 21.6995 17.7547 21.7648 17.8805C21.83 18.0062 21.8502 18.1508 21.8219 18.2898C21.7936 18.4288 21.7186 18.5537 21.6095 18.6435C21.5003 18.7332 21.3638 18.7824 21.2228 18.7826Z" fill="#F9DC39"/>
<path d="M28.1436 11.9368C28.0212 11.937 27.9016 11.9006 27.7999 11.832C27.6983 11.7635 27.6193 11.666 27.5729 11.552L23.9372 2.49012C23.8761 2.33847 23.8774 2.16859 23.9407 2.01787C24.004 1.86715 24.1242 1.74793 24.2749 1.68643C24.4255 1.62493 24.5942 1.62619 24.744 1.68994C24.8937 1.75369 25.0121 1.8747 25.0732 2.02635L28.7116 11.0883C28.7719 11.2403 28.77 11.4102 28.7062 11.5608C28.6424 11.7114 28.522 11.8305 28.3713 11.892C28.2992 11.9222 28.2217 11.9375 28.1436 11.9368Z" fill="#F9DC39"/>
<path d="M44.6444 18.9881C44.5021 18.9884 44.3642 18.9388 44.2542 18.8478C44.1443 18.7569 44.0693 18.6302 44.0421 18.4896C44.0148 18.349 44.037 18.2033 44.1049 18.0774C44.1728 17.9515 44.2821 17.8533 44.414 17.7997L53.4157 14.137C53.5667 14.0755 53.7357 14.0769 53.8857 14.1409C54.0357 14.2049 54.1542 14.3263 54.2153 14.4783C54.2764 14.6303 54.275 14.8005 54.2115 14.9514C54.1479 15.1024 54.0274 15.2218 53.8764 15.2833L44.8747 18.946C44.8011 18.9739 44.7231 18.9881 44.6444 18.9881Z" fill="#F9DC39"/>
<path d="M65.7861 43.8577C64.3726 50.5587 60.0615 56.7695 53.4549 60.5639C49.5724 62.8006 45.1783 63.9811 40.705 63.9895C38.0491 63.9938 35.4102 63.563 32.8917 62.7141C30.3735 63.5643 27.7345 63.996 25.0784 63.9921C20.606 63.9838 16.2127 62.8032 12.3311 60.5666C5.72189 56.7721 1.41346 50.5587 0 43.8577C2.51732 43.0032 5.15672 42.5697 7.81329 42.5745C8.95145 42.5742 10.0883 42.6517 11.2161 42.8063C10.3464 39.0802 10.3464 35.2018 11.2161 31.4757C16.5848 32.142 21.5932 34.5464 25.4868 38.3268C26.7724 33.8687 29.3508 29.8986 32.8917 26.9249C36.4381 29.8962 39.0213 33.8668 40.3098 38.3268C44.202 34.5459 49.2097 32.1414 54.5778 31.4757C55.4475 35.2018 55.4475 39.0802 54.5778 42.8063C55.7056 42.6516 56.8425 42.5741 57.9806 42.5745C60.6345 42.571 63.2711 43.0045 65.7861 43.8577Z" fill="#FAA4A7"/>
<path d="M53.0727 43.0593C52.9419 43.5863 52.7927 44.0922 52.6251 44.6008C51.8701 46.9097 50.7828 49.0945 49.3977 51.0857C45.9484 56.1247 40.7287 59.6589 34.792 60.975C34.7974 60.9525 34.8044 60.9305 34.8129 60.9091C37.2637 58.3244 39.0907 55.2066 40.1527 51.7971C40.4197 50.944 40.6356 50.0755 40.7992 49.1963C41.3769 46.1265 41.3413 42.9715 40.6945 39.9157C44.1363 36.3455 48.6022 33.9497 53.4654 33.0646C54.0506 36.3858 53.9167 39.795 53.0727 43.0593Z" fill="#FBD5CF"/>
<path d="M39.8072 44.8222C39.8077 46.9365 39.5054 49.0398 38.9094 51.0672C37.9319 54.3841 36.1841 57.419 33.8104 59.921C33.7372 60.0027 33.6612 60.0817 33.5801 60.1634C33.3576 60.3926 33.1273 60.6193 32.8917 60.838C32.6561 60.6193 32.4258 60.3926 32.2033 60.1634C32.1221 60.0817 32.0462 60.0027 31.9729 59.921C28.117 55.8533 25.9689 50.4448 25.9762 44.8222C25.976 43.6154 26.074 42.4107 26.2694 41.22C26.3671 40.6386 26.4858 40.0641 26.6254 39.4967C27.6422 35.397 29.819 31.6824 32.8917 28.8037C35.9635 31.6832 38.1401 35.3975 39.158 39.4967C39.2994 40.0641 39.418 40.6386 39.514 41.22C39.7094 42.4107 39.8074 43.6154 39.8072 44.8222Z" fill="#FBD5CF"/>
<path d="M30.9914 60.975C25.0547 59.6589 19.835 56.1247 16.3857 51.0856C15.0007 49.0945 13.9133 46.9097 13.1583 44.6008C12.9908 44.0922 12.8416 43.5758 12.7081 43.0593C11.8666 39.7955 11.7336 36.3874 12.3181 33.0672C17.1812 33.9523 21.6471 36.3481 25.0889 39.9183C24.4421 42.9742 24.4065 46.1291 24.9842 49.199C25.1478 50.0781 25.3637 50.9466 25.6307 51.7997C26.6927 55.2092 28.5198 58.327 30.9705 60.9117C30.9789 60.9323 30.9859 60.9534 30.9914 60.975Z" fill="#FBD5CF"/>
<path d="M94.2463 55.1305L86.9041 39.278H84.6557L87.9695 46.4585L83.962 55.1305L76.6199 39.278H74.3479L82.6323 57.1726H83.9961L88.4563 47.5099L92.9401 57.1726H94.2803L102.565 39.278H101.591L94.2463 55.1305Z" fill="#FBD5CF"/>
<path d="M116.605 40.6535C115.245 39.6691 113.605 39.1551 111.93 39.1884C109.365 39.1884 107.145 40.2425 105.983 41.9842V33.7497L103.947 32.3136V57.1805H105.983V44.9776C106.049 41.9183 108.766 40.3162 111.415 40.3162C113.967 40.3162 116.712 41.8024 116.712 45.0593V57.1805H118.749V45.0593C118.768 44.2058 118.583 43.3602 118.21 42.5935C117.837 41.8269 117.287 41.1616 116.605 40.6535Z" fill="#FBD5CF"/>
<path d="M129.119 39.1884C123.345 39.1884 120.715 43.8788 120.715 48.2372C120.676 50.4942 121.416 52.6949 122.809 54.4638C124.337 56.3241 126.51 57.307 129.091 57.307H129.135C131.732 57.307 133.912 56.3294 135.443 54.4796C136.836 52.7218 137.577 50.5301 137.537 48.282C137.574 46.0188 136.828 43.8132 135.428 42.0422C133.902 40.1766 131.719 39.1884 129.119 39.1884ZM127.716 40.224C128.069 40.1626 128.427 40.1335 128.784 40.137C132.972 40.137 135.556 44.809 135.556 49.1357C135.556 52.1581 134.247 55.6206 130.546 56.2714C130.193 56.3327 129.836 56.3618 129.478 56.3584C125.29 56.3584 122.673 51.6759 122.673 47.336C122.683 44.3241 124.005 40.8748 127.716 40.224Z" fill="#FBD5CF"/>
<path d="M139.247 57.1726H141.283V33.7497L139.247 32.3136V57.1726Z" fill="#FBD5CF"/>
<path d="M144.008 57.1726H146.044V40.5692L144.008 39.1304V57.1726Z" fill="#FBD5CF"/>
<path d="M145.037 35.9262C144.803 35.9241 144.574 35.9921 144.38 36.1214C144.185 36.2507 144.032 36.4355 143.942 36.6523C143.852 36.8691 143.828 37.108 143.873 37.3385C143.918 37.5691 144.031 37.7808 144.196 37.9468C144.361 38.1128 144.572 38.2255 144.801 38.2705C145.03 38.3155 145.267 38.2908 145.483 38.1996C145.698 38.1083 145.881 37.9546 146.009 37.7581C146.137 37.5616 146.204 37.3311 146.201 37.0962C146.197 36.7867 146.073 36.4911 145.856 36.2725C145.638 36.0539 145.344 35.9296 145.037 35.9262Z" fill="#FBD5CF"/>
<path d="M154.072 39.1884C150.45 39.1884 147.72 41.3465 147.72 44.2082C147.723 44.4258 147.739 44.6431 147.767 44.859C148.186 47.9394 151.486 48.7246 154.4 49.4177C156.755 49.9789 158.978 50.5086 159.349 52.1186C159.391 52.2991 159.412 52.4839 159.412 52.6693C159.412 54.4295 157.58 56.0738 155.334 56.3373H155.271C155.009 56.3584 154.748 56.3768 154.517 56.3768C152.193 56.3768 149.848 54.859 149.848 51.473V51.0672L147.72 51.0409V51.4045C147.72 54.1976 150.028 57.1673 153.892 57.3017H154.25C157.831 57.3017 160.532 55.1647 160.532 52.3268C160.53 52.1242 160.517 51.9219 160.493 51.7207V51.6522C160.074 48.5613 156.776 47.776 153.871 47.083C151.515 46.5217 149.29 45.9921 148.897 44.3716C148.856 44.191 148.835 44.0062 148.835 43.8208C148.835 42.0738 150.667 40.4401 152.923 40.1739C153.205 40.1394 153.488 40.1253 153.771 40.1318C156.983 40.1318 158.42 42.5033 158.42 44.8564V45.2174H160.514V44.8775C160.53 42.1739 158.266 39.2622 154.072 39.1884Z" fill="#FBD5CF"/>
<path d="M174.366 35.9262C174.212 35.9219 174.06 35.9497 173.917 36.0077C173.775 36.0658 173.646 36.1528 173.539 36.2635C173.43 36.3723 173.344 36.5022 173.287 36.6453C173.229 36.7884 173.201 36.9418 173.204 37.0962C173.203 37.4089 173.324 37.7094 173.542 37.9327C173.759 38.156 174.055 38.2843 174.366 38.2899C174.521 38.2889 174.674 38.2565 174.816 38.1944C174.958 38.1324 175.086 38.0421 175.193 37.9289C175.304 37.8216 175.391 37.692 175.45 37.5486C175.508 37.4052 175.535 37.251 175.531 37.0962C175.532 36.9418 175.503 36.7887 175.446 36.6458C175.388 36.5028 175.302 36.373 175.193 36.264C175.085 36.155 174.956 36.0689 174.813 36.0109C174.671 35.9529 174.519 35.9241 174.366 35.9262Z" fill="#FBD5CF"/>
<path d="M166.254 39.278V36.7431L164.215 35.3307V35.6337C164.228 36.323 164.148 37.0109 163.977 37.6785C163.837 38.1747 163.519 38.601 163.084 38.8748C162.647 39.1383 162.037 39.278 161.176 39.278H161.019V40.1818H164.215V53.3017C164.181 54.1091 164.375 54.9097 164.775 55.61C165.097 56.1803 165.589 56.6346 166.181 56.9091C166.73 57.1879 167.336 57.3324 167.95 57.3307C168.75 57.341 169.535 57.1127 170.207 56.6746C170.537 56.4721 170.824 56.2043 171.049 55.8872C171.274 55.5702 171.432 55.2106 171.515 54.83L171.557 54.6377H170.644V54.7958C170.644 55.1383 170.411 55.4783 169.927 55.8498C169.459 56.2012 168.89 56.3907 168.306 56.39C167.921 56.3877 167.546 56.266 167.232 56.0417C166.917 55.8173 166.679 55.501 166.55 55.1357C166.329 54.5216 166.227 53.8702 166.252 53.2174V40.1818H173.335V57.1805H175.374V40.5797L173.541 39.2885L166.254 39.278Z" fill="#FBD5CF"/>
<path d="M191.843 53.1858L191.799 53.2727C191.298 54.2265 190.542 55.0206 189.617 55.5658C188.693 56.1109 187.635 56.3854 186.564 56.3584C182.376 56.3584 179.771 51.6759 179.771 47.336C179.771 43.1779 182.253 40.1581 185.671 40.1581C188.514 40.1581 190.406 42.6983 190.746 45.0856L190.765 45.2226H192.887L192.869 45.0461C192.672 43.4185 191.885 41.9212 190.66 40.8406C189.435 39.76 187.857 39.1717 186.229 39.1884C183.611 39.1884 181.433 40.1686 179.902 42.0184C178.506 43.7829 177.766 45.9821 177.808 48.2371C177.808 52.5876 180.467 57.2833 186.304 57.307C189.184 57.307 191.278 56.0738 192.848 53.4282L192.992 53.1858H191.843Z" fill="#FBD5CF"/>
</g>
<defs>
<clipPath id="clip0_333_5300">
<rect width="193" height="64" fill="white"/>
</clipPath>
</defs>
</svg>
